<svg width="1648" height="1549" viewBox="0 0 1648 1549" fill="none" xmlns="http://www.w3.org/2000/svg">
<path d="M809.6 43.0668C801.6 67.0668 788.133 108.267 779.333 134.667C770.667 161.067 748.267 229.2 729.6 286C710.8 342.8 680.667 434.534 662.533 489.6L629.467 590H315.067C142.133 590 0.666626 590.4 0.666626 590.934C0.666626 591.6 23.3333 608.267 51.0666 628.134C78.6666 648 192 729.2 302.667 808.534C413.467 888 505.067 954 506.4 955.2C509.067 957.734 513.733 942.667 450.4 1134.67C425.467 1210.67 404.533 1274.27 366.667 1389.33C347.867 1446.53 328.533 1505.2 323.733 1519.73C318.933 1534.27 315.333 1546.53 315.733 1546.93C316.667 1547.73 284.267 1570.93 570.667 1365.33C705.6 1268.53 818 1187.87 820.267 1186.27L824.667 1183.2L926.267 1256.27C1252.53 1490.67 1333.33 1548.4 1333.73 1548C1334 1547.73 1327.6 1527.6 1319.6 1503.07C1311.47 1478.67 1290.8 1415.73 1273.47 1363.33C1205.33 1155.87 1178.53 1074.27 1165.33 1034C1146 975.334 1140.67 958.934 1140.67 957.334C1140.67 956.534 1254.67 874.267 1394 774.267C1533.33 674.267 1647.33 591.867 1647.33 591.2C1647.33 590.534 1526.13 589.867 1333.07 589.734L1018.93 589.334L997.067 522.667C985.067 486 960.8 412.534 943.333 359.333C925.867 306.133 892.267 203.867 868.667 132C845.067 60.1335 825.333 0.933481 824.8 0.400147C824.267 -0.26652 817.467 18.9335 809.6 43.0668Z" fill="#9D9D9D"/>
</svg>
