<svg width="1647" height="1548" viewBox="0 0 1647 1548" fill="none" xmlns="http://www.w3.org/2000/svg">
<path d="M808.933 42.6835C800.933 66.6835 787.467 107.884 778.667 134.284C770 160.684 747.6 228.817 728.933 285.617C710.133 342.417 680 434.15 661.867 489.217L628.8 589.617H314.4C141.467 589.617 0 590.017 0 590.55C0 591.217 22.6667 607.884 50.4 627.75C78 647.617 191.333 728.817 302 808.15C412.8 887.617 504.4 953.617 505.733 954.817C508.4 957.35 513.067 942.284 449.733 1134.28C424.8 1210.28 403.867 1273.88 366 1388.95C347.2 1446.15 327.867 1504.82 323.067 1519.35C318.267 1533.88 314.667 1546.15 315.067 1546.55C316 1547.35 283.6 1570.55 570 1364.95C704.933 1268.15 817.333 1187.48 819.6 1185.88L824 1182.82L925.6 1255.88C1251.87 1490.28 1332.67 1548.02 1333.07 1547.62C1333.33 1547.35 1326.93 1527.22 1318.93 1502.68C1310.8 1478.28 1290.13 1415.35 1272.8 1362.95C1204.67 1155.48 1177.87 1073.88 1164.67 1033.62C1145.33 974.95 1140 958.55 1140 956.95C1140 956.15 1254 873.884 1393.33 773.884C1532.67 673.884 1646.67 591.484 1646.67 590.817C1646.67 590.15 1525.47 589.484 1332.4 589.35L1018.27 588.95L996.4 522.284C984.4 485.617 960.133 412.15 942.667 358.95C925.2 305.75 891.6 203.484 868 131.617C844.4 59.7502 824.667 0.55018 824.133 0.0168464C823.6 -0.64982 816.8 18.5502 808.933 42.6835Z" fill="#FFE600"/>
</svg>
